  0
SECTION
  2
HEADER
  9
$ACADVER
  1
AC1009
  9
$INSBASE
 10
0.0
 20
0.0
 30
0.0
  9
$EXTMIN
 10
-38.5135575880575516
 20
-26.00259193615409
 30
-0.0015258207003583
  9
$EXTMAX
 10
38.5180332907791581
 20
26.0052590762192004
 30
0.0000000349246037
  9
$LIMMIN
 10
0.0
 20
0.0
  9
$LIMMAX
 10
12.0
 20
9.0
  9
$ORTHOMODE
 70
     0
  9
$REGENMODE
 70
     1
  9
$FILLMODE
 70
     1
  9
$QTEXTMODE
 70
     0
  9
$MIRRTEXT
 70
     0
  9
$DRAGMODE
 70
     2
  9
$LTSCALE
 40
1.0
  9
$OSMODE
 70
    37
  9
$ATTMODE
 70
     1
  9
$TEXTSIZE
 40
1.0
  9
$TRACEWID
 40
0.05
  9
$TEXTSTYLE
  7
STANDARD
  9
$CLAYER
  8
0
  9
$CELTYPE
  6
CONTINUOUS
  9
$CECOLOR
 62
   256
  9
$DIMSCALE
 40
1.0
  9
$DIMASZ
 40
0.18
  9
$DIMEXO
 40
0.0625
  9
$DIMDLI
 40
0.38
  9
$DIMRND
 40
0.0
  9
$DIMDLE
 40
0.0
  9
$DIMEXE
 40
0.18
  9
$DIMTP
 40
0.0
  9
$DIMTM
 40
0.0
  9
$DIMTXT
 40
0.18
  9
$DIMCEN
 40
0.09
  9
$DIMTSZ
 40
0.0
  9
$DIMTOL
 70
     0
  9
$DIMLIM
 70
     0
  9
$DIMTIH
 70
     1
  9
$DIMTOH
 70
     1
  9
$DIMSE1
 70
     0
  9
$DIMSE2
 70
     0
  9
$DIMTAD
 70
     0
  9
$DIMZIN
 70
     0
  9
$DIMBLK
  1

  9
$DIMASO
 70
     1
  9
$DIMSHO
 70
     1
  9
$DIMPOST
  1

  9
$DIMAPOST
  1

  9
$DIMALT
 70
     0
  9
$DIMALTD
 70
     2
  9
$DIMALTF
 40
25.3999999999999986
  9
$DIMLFAC
 40
1.0
  9
$DIMTOFL
 70
     0
  9
$DIMTVP
 40
0.0
  9
$DIMTIX
 70
     0
  9
$DIMSOXD
 70
     0
  9
$DIMSAH
 70
     0
  9
$DIMBLK1
  1

  9
$DIMBLK2
  1

  9
$DIMSTYLE
  2
STANDARD
  9
$DIMCLRD
 70
     0
  9
$DIMCLRE
 70
     0
  9
$DIMCLRT
 70
     0
  9
$DIMTFAC
 40
1.0
  9
$DIMGAP
 40
0.09
  9
$LUNITS
 70
     2
  9
$LUPREC
 70
     4
  9
$SKETCHINC
 40
0.1
  9
$FILLETRAD
 40
3.0
  9
$AUNITS
 70
     0
  9
$AUPREC
 70
     0
  9
$MENU
  1
.
  9
$ELEVATION
 40
0.0
  9
$PELEVATION
 40
0.0
  9
$THICKNESS
 40
0.0
  9
$LIMCHECK
 70
     0
  9
$BLIPMODE
 70
     0
  9
$CHAMFERA
 40
0.0
  9
$CHAMFERB
 40
0.0
  9
$SKPOLY
 70
     0
  9
$TDCREATE
 40
2459024.0020370371639729
  9
$TDUPDATE
 40
2459025.8015509261749685
  9
$TDINDWG
 40
0.0202083333
  9
$TDUSRTIMER
 40
0.0202083333
  9
$USRTIMER
 70
     1
  9
$ANGBASE
 50
0.0
  9
$ANGDIR
 70
     0
  9
$PDMODE
 70
     0
  9
$PDSIZE
 40
0.0
  9
$PLINEWID
 40
0.0
  9
$COORDS
 70
     1
  9
$SPLFRAME
 70
     0
  9
$SPLINETYPE
 70
     6
  9
$SPLINESEGS
 70
     8
  9
$ATTDIA
 70
     1
  9
$ATTREQ
 70
     1
  9
$HANDLING
 70
     1
  9
$HANDSEED
  5
3DA
  9
$SURFTAB1
 70
     6
  9
$SURFTAB2
 70
     6
  9
$SURFTYPE
 70
     6
  9
$SURFU
 70
     6
  9
$SURFV
 70
     6
  9
$UCSNAME
  2

  9
$UCSORG
 10
0.0
 20
0.0
 30
0.0
  9
$UCSXDIR
 10
1.0
 20
0.0
 30
0.0
  9
$UCSYDIR
 10
0.0
 20
1.0
 30
0.0
  9
$PUCSNAME
  2

  9
$PUCSORG
 10
0.0
 20
0.0
 30
0.0
  9
$PUCSXDIR
 10
1.0
 20
0.0
 30
0.0
  9
$PUCSYDIR
 10
0.0
 20
1.0
 30
0.0
  9
$USERI1
 70
     0
  9
$USERI2
 70
     0
  9
$USERI3
 70
     0
  9
$USERI4
 70
     0
  9
$USERI5
 70
     0
  9
$USERR1
 40
0.0
  9
$USERR2
 40
0.0
  9
$USERR3
 40
0.0
  9
$USERR4
 40
0.0
  9
$USERR5
 40
0.0
  9
$WORLDVIEW
 70
     1
  9
$SHADEDGE
 70
     3
  9
$SHADEDIF
 70
    70
  9
$TILEMODE
 70
     1
  9
$MAXACTVP
 70
    64
  9
$PLIMCHECK
 70
     0
  9
$PEXTMIN
 10
1.0000000000000000E+20
 20
1.0000000000000000E+20
 30
1.0000000000000000E+20
  9
$PEXTMAX
 10
-1.0000000000000000E+20
 20
-1.0000000000000000E+20
 30
-1.0000000000000000E+20
  9
$PLIMMIN
 10
0.0
 20
0.0
  9
$PLIMMAX
 10
12.0
 20
9.0
  9
$UNITMODE
 70
     0
  9
$VISRETAIN
 70
     1
  9
$PLINEGEN
 70
     0
  9
$PSLTSCALE
 70
     1
  0
ENDSEC
  0
SECTION
  2
TABLES
  0
TABLE
  2
VPORT
 70
     1
  0
VPORT
  2
*ACTIVE
 70
     0
 10
0.0
 20
0.0
 11
1.0
 21
1.0
 12
-9.3875166027846717
 22
12.1220981679066107
 13
0.0
 23
0.0
 14
1.0
 24
1.0
 15
0.0
 25
0.0
 16
0.0
 26
0.0
 36
1.0
 17
0.0
 27
0.0
 37
0.0
 40
243.6677237105267864
 41
1.386138613861386
 42
50.0
 43
0.0
 44
0.0
 50
0.0
 51
0.0
 71
     0
 72
   100
 73
     1
 74
     1
 75
     0
 76
     0
 77
     0
 78
     0
  0
ENDTAB
  0
TABLE
  2
LTYPE
 70
     2
  0
LTYPE
  2
CONTINUOUS
 70
     0
  3
Solid line
 72
    65
 73
     0
 40
0.0
  0
ENDTAB
  0
TABLE
  2
LAYER
 70
     2
  0
LAYER
  2
0
 70
     0
 62
     7
  6
CONTINUOUS
  0
LAYER
  2
BOARD_GEOMS
 70
     0
 62
     7
  6
CONTINUOUS
  0
ENDTAB
  0
TABLE
  2
STYLE
 70
     2
  0
STYLE
  2
STANDARD
 70
     0
 40
0.0
 41
1.0
 50
0.0
 71
     0
 42
1.0
  3
txt
  4

  0
STYLE
  2
ANNOTATIVE
 70
     0
 40
0.0
 41
1.0
 50
0.0
 71
     0
 42
0.2
  3
txt
  4

  0
ENDTAB
  0
TABLE
  2
VIEW
 70
     5
  0
ENDTAB
  0
TABLE
  2
UCS
 70
     0
  0
ENDTAB
  0
TABLE
  2
APPID
 70
     5
  0
APPID
  2
ACAD
 70
     0
  0
APPID
  2
ACADANNOTATIVE
 70
     0
  0
APPID
  2
ACAD_EXEMPT_FROM_CAD_STANDARDS
 70
     0
  0
APPID
  2
ACAD_NAV_VCDISPLAY
 70
     0
  0
APPID
  2
ACAD_MLEADERVER
 70
     0
  0
ENDTAB
  0
TABLE
  2
DIMSTYLE
 70
     3
  0
DIMSTYLE
  2
STANDARD
 70
     0
  3

  4

  5

  6

  7

 40
1.0
 41
0.18
 42
0.0625
 43
0.38
 44
0.18
 45
0.0
 46
0.0
 47
0.0
 48
0.0
140
0.18
141
0.09
142
0.0
143
25.3999999999999986
144
1.0
145
0.0
146
1.0
147
0.09
 71
     0
 72
     0
 73
     1
 74
     1
 75
     0
 76
     0
 77
     0
 78
     0
170
     0
171
     2
172
     0
173
     0
174
     0
175
     0
176
     0
177
     0
178
     0
  0
DIMSTYLE
  2
ANNOTATIVE
 70
     0
  3

  4

  5

  6

  7

 40
1.0
 41
0.18
 42
0.0625
 43
0.38
 44
0.18
 45
0.0
 46
0.0
 47
0.0
 48
0.0
140
0.18
141
0.09
142
0.0
143
25.3999999999999986
144
1.0
145
0.0
146
1.0
147
0.09
 71
     0
 72
     0
 73
     1
 74
     1
 75
     0
 76
     0
 77
     0
 78
     0
170
     0
171
     2
172
     0
173
     0
174
     0
175
     0
176
     0
177
     0
178
     0
  0
ENDTAB
  0
ENDSEC
  0
SECTION
  2
BLOCKS
  0
BLOCK
  8
0
  2
$MODEL_SPACE
 70
     0
 10
0.0
 20
0.0
 30
0.0
  3
$MODEL_SPACE
  1

  0
ENDBLK
  5
1F3
  8
0
  0
BLOCK
 67
     1
  8
0
  2
$PAPER_SPACE
 70
     0
 10
0.0
 20
0.0
 30
0.0
  3
$PAPER_SPACE
  1

  0
ENDBLK
  5
1EF
 67
     1
  8
0
  0
BLOCK
  8
BOARD_GEOMS
  2
BOARD_OUTLINE
 70
     0
 10
0.0
 20
0.0
 30
0.0
  3
BOARD_OUTLINE
  1

  0
ARC
  5
79
  8
BOARD_GEOMS
 62
     0
 10
101.980000000000004
 20
-107.980000000000004
 30
0.0
 40
1.5000000000000291
 50
180.0
 51
269.99999999999892
  0
LINE
  5
7A
  8
BOARD_GEOMS
 62
     0
 10
100.480000000000004
 20
-71.980000000000004
 30
0.0
 11
100.480000000000004
 21
-107.980000000000004
 31
0.0
  0
LINE
  5
7B
  8
BOARD_GEOMS
 62
     0
 10
101.980000000000004
 20
-109.480000000000004
 30
0.0
 11
105.8799999999999955
 21
-109.480000000000004
 31
0.0
  0
ARC
  5
7C
  8
BOARD_GEOMS
 62
     0
 10
101.980000000000004
 20
-71.9800000000000324
 30
0.0
 40
1.5000000000000291
 50
90.0000000000010942
 51
180.0
  0
ARC
  5
7D
  8
BOARD_GEOMS
 62
     0
 10
105.8799999999997965
 20
-113.980000000000004
 30
0.0
 40
4.5000000000000151
 50
0.0
 51
89.999999999999801
  0
LINE
  5
7E
  8
BOARD_GEOMS
 62
     0
 10
105.8799999999999955
 20
-70.480000000000004
 30
0.0
 11
101.980000000000004
 21
-70.480000000000004
 31
0.0
  0
LINE
  5
7F
  8
BOARD_GEOMS
 62
     0
 10
110.3799999999999955
 20
-113.980000000000004
 30
0.0
 11
110.3799999999999955
 21
-117.8799999999999955
 31
0.0
  0
ARC
  5
80
  8
BOARD_GEOMS
 62
     0
 10
105.8799999999997965
 20
-65.9799999999999756
 30
0.0
 40
4.5000000000000151
 50
270.0000000000002842
 51
0.0
  0
ARC
  5
81
  8
BOARD_GEOMS
 62
     0
 10
111.8799999999999955
 20
-117.8799999999999955
 30
0.0
 40
1.5000000000000131
 50
180.0
 51
269.9999999999993747
  0
LINE
  5
82
  8
BOARD_GEOMS
 62
     0
 10
110.3799999999999955
 20
-62.0799999999999983
 30
0.0
 11
110.3799999999999955
 21
-65.980000000000004
 31
0.0
  0
LINE
  5
83
  8
BOARD_GEOMS
 62
     0
 10
111.8799999999999955
 20
-119.3799999999999955
 30
0.0
 11
179.8799999999999955
 21
-119.3799999999999955
 31
0.0
  0
ARC
  5
84
  8
BOARD_GEOMS
 62
     0
 10
111.8799999999999955
 20
-62.0800000000000125
 30
0.0
 40
1.5000000000000011
 50
90.0
 51
180.0
  0
ARC
  5
85
  8
BOARD_GEOMS
 62
     0
 10
179.8799999999999955
 20
-117.8799999999999955
 30
0.0
 40
1.499999999999992
 50
270.0
 51
0.0
  0
LINE
  5
86
  8
BOARD_GEOMS
 62
     0
 10
179.8799999999999955
 20
-60.579999999999977
 30
0.0
 11
111.8799999999999955
 21
-60.579999999999977
 31
0.0
  0
LINE
  5
87
  8
BOARD_GEOMS
 62
     0
 10
181.3799999999999955
 20
-117.8799999999999955
 30
0.0
 11
181.3799999999999955
 21
-113.980000000000004
 31
0.0
  0
ARC
  5
88
  8
BOARD_GEOMS
 62
     0
 10
179.8799999999999955
 20
-62.079999999999977
 30
0.0
 40
1.499999999999974
 50
0.0
 51
90.0000000000010942
  0
ARC
  5
89
  8
BOARD_GEOMS
 62
     0
 10
185.8799999999999955
 20
-113.980000000000004
 30
0.0
 40
4.5000000000000204
 50
90.0000000000003837
 51
180.0
  0
LINE
  5
8A
  8
BOARD_GEOMS
 62
     0
 10
181.3799999999999955
 20
-65.980000000000004
 30
0.0
 11
181.3799999999999955
 21
-62.0799999999999983
 31
0.0
  0
LINE
  5
8B
  8
BOARD_GEOMS
 62
     0
 10
185.8799999999999955
 20
-109.480000000000004
 30
0.0
 11
189.7800000000000011
 21
-109.480000000000004
 31
0.0
  0
ARC
  5
8C
  8
BOARD_GEOMS
 62
     0
 10
185.8799999999999955
 20
-65.9799999999999756
 30
0.0
 40
4.5000000000000204
 50
180.0
 51
269.9999999999996021
  0
ARC
  5
8D
  8
BOARD_GEOMS
 62
     0
 10
189.7800000000000011
 20
-107.980000000000004
 30
0.0
 40
1.5
 50
270.0
 51
0.0
  0
LINE
  5
8E
  8
BOARD_GEOMS
 62
     0
 10
189.7800000000000011
 20
-70.480000000000004
 30
0.0
 11
185.8799999999999955
 21
-70.480000000000004
 31
0.0
  0
LINE
  5
8F
  8
BOARD_GEOMS
 62
     0
 10
191.2800000000000011
 20
-107.980000000000004
 30
0.0
 11
191.2800000000000011
 21
-71.980000000000004
 31
0.0
  0
ARC
  5
90
  8
BOARD_GEOMS
 62
     0
 10
189.7800000000000011
 20
-71.980000000000004
 30
0.0
 40
1.5
 50
0.0
 51
90.0
  0
ARC
  5
91
  8
BOARD_GEOMS
 62
     0
 10
105.8799999999999955
 20
-89.980000000000004
 30
0.0
 40
2.0
 50
0.0
 51
180.0
  0
ARC
  5
92
  8
BOARD_GEOMS
 62
     0
 10
105.8799999999999955
 20
-89.980000000000004
 30
0.0
 40
2.0
 50
180.0
 51
0.0
  0
CIRCLE
  5
93
  8
BOARD_GEOMS
 62
     0
 10
164.9499999999999034
 20
-73.2600000000000051
 30
0.0
 40
0.5
  0
CIRCLE
  5
94
  8
BOARD_GEOMS
 62
     0
 10
164.9499999999999034
 20
-78.3400000000000034
 30
0.0
 40
0.5
  0
CIRCLE
  5
95
  8
BOARD_GEOMS
 62
     0
 10
115.9500000000000028
 20
-115.8499999999999943
 30
0.0
 40
0.4990000000000001
  0
CIRCLE
  5
96
  8
BOARD_GEOMS
 62
     0
 10
115.9500000000000028
 20
-112.3499999999999943
 30
0.0
 40
0.4990000000000001
  0
ARC
  5
97
  8
BOARD_GEOMS
 62
     0
 10
123.3799999999999955
 20
-112.980000000000004
 30
0.0
 40
2.0
 50
0.0
 51
180.0
  0
ARC
  5
98
  8
BOARD_GEOMS
 62
     0
 10
123.3799999999999955
 20
-112.980000000000004
 30
0.0
 40
2.0
 50
180.0
 51
0.0
  0
ARC
  5
99
  8
BOARD_GEOMS
 62
     0
 10
168.3799999999999955
 20
-66.980000000000004
 30
0.0
 40
2.0
 50
0.0
 51
180.0
  0
ARC
  5
9A
  8
BOARD_GEOMS
 62
     0
 10
168.3799999999999955
 20
-66.980000000000004
 30
0.0
 40
2.0
 50
180.0
 51
0.0
  0
ARC
  5
9B
  8
BOARD_GEOMS
 62
     0
 10
168.3799999999999955
 20
-112.980000000000004
 30
0.0
 40
2.0
 50
0.0
 51
180.0
  0
ARC
  5
9C
  8
BOARD_GEOMS
 62
     0
 10
168.3799999999999955
 20
-112.980000000000004
 30
0.0
 40
2.0
 50
180.0
 51
0.0
  0
ARC
  5
9D
  8
BOARD_GEOMS
 62
     0
 10
123.3799999999999955
 20
-66.980000000000004
 30
0.0
 40
2.0
 50
0.0
 51
180.0
  0
ARC
  5
9E
  8
BOARD_GEOMS
 62
     0
 10
123.3799999999999955
 20
-66.980000000000004
 30
0.0
 40
2.0
 50
180.0
 51
0.0
  0
CIRCLE
  5
9F
  8
BOARD_GEOMS
 62
     0
 10
164.9499999999999034
 20
-75.7999999999999829
 30
0.0
 40
0.5
  0
ARC
  5
A0
  8
BOARD_GEOMS
 62
     0
 10
185.8799999999999955
 20
-89.980000000000004
 30
0.0
 40
2.0
 50
0.0
 51
180.0
  0
ARC
  5
A1
  8
BOARD_GEOMS
 62
     0
 10
185.8799999999999955
 20
-89.980000000000004
 30
0.0
 40
2.0
 50
180.0
 51
0.0
  0
ENDBLK
  5
A2
  8
0
  0
ENDSEC
  0
SECTION
  2
ENTITIES
  0
POLYLINE
  5
218
  8
0
  6
CONTINUOUS
 66
     1
 10
0.0
 20
0.0
 30
0.0
 70
     1
  0
VERTEX
  5
3BD
  8
0
  6
CONTINUOUS
 10
-28.8083187304023909
 20
-26.0
 30
0.0
  0
VERTEX
  5
3BE
  8
0
  6
CONTINUOUS
 10
0.0
 20
-26.0
 30
0.0
  0
VERTEX
  5
3BF
  8
0
  6
CONTINUOUS
 10
28.8083187304023909
 20
-26.0
 30
0.0
 42
0.1972900178414302
  0
VERTEX
  5
3C0
  8
0
  6
CONTINUOUS
 10
30.9163515502885993
 20
-25.1345251533497382
 30
0.0
  0
VERTEX
  5
3C1
  8
0
  6
CONTINUOUS
 10
37.6080328198862475
 20
-18.5258966654668207
 30
0.0
 42
0.2005357247732849
  0
VERTEX
  5
3C2
  8
0
  6
CONTINUOUS
 10
38.5
 20
-16.3913715121171286
 30
0.0
  0
VERTEX
  5
3C3
  8
0
  6
CONTINUOUS
 10
38.5
 20
0.0
 30
0.0
  0
VERTEX
  5
3C4
  8
0
  6
CONTINUOUS
 10
38.5
 20
16.3913715121171286
 30
0.0
 42
0.2005357247732928
  0
VERTEX
  5
3C5
  8
0
  6
CONTINUOUS
 10
37.608032819886148
 20
18.5258966654668704
 30
0.0
  0
VERTEX
  5
3C6
  8
0
  6
CONTINUOUS
 10
30.9163515502885993
 20
25.1345251533497382
 30
0.0
 42
0.1972900178414381
  0
VERTEX
  5
3C7
  8
0
  6
CONTINUOUS
 10
28.8083187304023909
 20
26.0
 30
0.0
  0
VERTEX
  5
3C8
  8
0
  6
CONTINUOUS
 10
20.4497673605704904
 20
26.0
 30
0.0
 42
0.1970729008712171
  0
VERTEX
  5
3C9
  8
0
  6
CONTINUOUS
 10
18.3435196656242283
 20
25.1362866491961015
 30
0.0
  0
VERTEX
  5
3CA
  8
0
  6
CONTINUOUS
 10
11.2558467635818094
 20
18.1482755983018507
 30
0.0
 42
-0.1970729008712171
  0
VERTEX
  5
3CB
  8
0
  6
CONTINUOUS
 10
9.1495990686355526
 20
17.2845622474979415
 30
0.0
  0
VERTEX
  5
3CC
  8
0
  6
CONTINUOUS
 10
0.0
 20
17.2845622474979415
 30
0.0
  0
VERTEX
  5
3CD
  8
0
  6
CONTINUOUS
 10
-9.1495990686355242
 20
17.2845622474979415
 30
0.0
 42
-0.1970729008712171
  0
VERTEX
  5
3CE
  8
0
  6
CONTINUOUS
 10
-11.2558467635818094
 20
18.1482755983018507
 30
0.0
  0
VERTEX
  5
3CF
  8
0
  6
CONTINUOUS
 10
-18.3435196656242283
 20
25.1362866491961015
 30
0.0
 42
0.1970729008712171
  0
VERTEX
  5
3D0
  8
0
  6
CONTINUOUS
 10
-20.4497673605705188
 20
26.0
 30
0.0
  0
VERTEX
  5
3D1
  8
0
  6
CONTINUOUS
 10
-28.8083187304023909
 20
26.0
 30
0.0
 42
0.1972900178414381
  0
VERTEX
  5
3D2
  8
0
  6
CONTINUOUS
 10
-30.9163515502885708
 20
25.1345251533497382
 30
0.0
  0
VERTEX
  5
3D3
  8
0
  6
CONTINUOUS
 10
-37.6080328198861835
 20
18.5258966654668704
 30
0.0
 42
0.2005357247732928
  0
VERTEX
  5
3D4
  8
0
  6
CONTINUOUS
 10
-38.5
 20
16.3913715121171286
 30
0.0
  0
VERTEX
  5
3D5
  8
0
  6
CONTINUOUS
 10
-38.5
 20
0.0
 30
0.0
  0
VERTEX
  5
3D6
  8
0
  6
CONTINUOUS
 10
-38.5
 20
-16.3913715121171286
 30
0.0
 42
0.2005357247732928
  0
VERTEX
  5
3D7
  8
0
  6
CONTINUOUS
 10
-37.6080328198861693
 20
-18.5258966654668917
 30
0.0
  0
VERTEX
  5
3D8
  8
0
  6
CONTINUOUS
 10
-30.9163515502885708
 20
-25.1345251533497382
 30
0.0
 42
0.1972900178414381
  0
SEQEND
  5
3D9
  8
0
  6
CONTINUOUS
  0
CIRCLE
  5
2CF
  8
0
  6
CONTINUOUS
 10
-31.5
 20
0.0
 30
0.0
 40
1.5
  0
CIRCLE
  5
2D0
  8
0
  6
CONTINUOUS
 10
-25.3000000000000114
 20
20.3999999999999986
 30
0.0
 40
1.5
  0
CIRCLE
  5
2D1
  8
0
  6
CONTINUOUS
 10
-25.3000000000000114
 20
-20.3999999999999986
 30
0.0
 40
1.5
  0
CIRCLE
  5
2D2
  8
0
  6
CONTINUOUS
 10
25.3000000000000114
 20
-20.3999999999999986
 30
0.0
 40
1.5
  0
CIRCLE
  5
2D3
  8
0
  6
CONTINUOUS
 10
31.5
 20
0.0
 30
0.0
 40
1.5
  0
CIRCLE
  5
2D4
  8
0
  6
CONTINUOUS
 10
25.3000000000000114
 20
20.3999999999999986
 30
0.0
 40
1.5
  0
ENDSEC
  0
EOF
